<svg width="68" height="31" viewBox="0 0 68 31" fill="none" xmlns="http://www.w3.org/2000/svg">
<g opacity="0.3">
<rect width="33" height="31" rx="3" fill="#621B1C"/>
<path d="M9.68632 15.0504L14.1409 10.6754C14.2609 10.5616 14.4217 10.4986 14.5885 10.5C14.7554 10.5014 14.915 10.5672 15.033 10.6831C15.151 10.7989 15.2179 10.9557 15.2193 11.1196C15.2208 11.2834 15.1567 11.4413 15.0407 11.5592L11.6724 14.8673H22.8636C23.0324 14.8673 23.1943 14.9332 23.3136 15.0504C23.433 15.1676 23.5 15.3266 23.5 15.4923C23.5 15.6581 23.433 15.8171 23.3136 15.9343C23.1943 16.0515 23.0324 16.1173 22.8636 16.1173H11.6724L15.0407 19.4254C15.1015 19.4831 15.15 19.5521 15.1833 19.6283C15.2167 19.7046 15.2343 19.7866 15.235 19.8696C15.2357 19.9526 15.2196 20.0349 15.1876 20.1117C15.1556 20.1885 15.1084 20.2583 15.0486 20.3169C14.9889 20.3756 14.9178 20.422 14.8396 20.4535C14.7614 20.4849 14.6776 20.5007 14.5931 20.5C14.5086 20.4993 14.4251 20.482 14.3475 20.4493C14.2698 20.4165 14.1996 20.3689 14.1409 20.3092L9.68632 15.9342C9.56702 15.817 9.5 15.658 9.5 15.4923C9.5 15.3266 9.56702 15.1676 9.68632 15.0504Z" fill="#FFFDF8"/>
</g>
<rect x="35" width="33" height="31" rx="3" fill="#621B1C"/>
<path d="M58.3137 15.0504L53.8591 10.6754C53.7391 10.5616 53.5783 10.4986 53.4115 10.5C53.2446 10.5014 53.085 10.5672 52.967 10.6831C52.849 10.7989 52.7821 10.9557 52.7807 11.1196C52.7792 11.2834 52.8433 11.4413 52.9593 11.5592L56.3276 14.8673H45.1364C44.9676 14.8673 44.8057 14.9332 44.6864 15.0504C44.567 15.1676 44.5 15.3266 44.5 15.4923C44.5 15.6581 44.567 15.8171 44.6864 15.9343C44.8057 16.0515 44.9676 16.1173 45.1364 16.1173H56.3276L52.9593 19.4254C52.8985 19.4831 52.85 19.5521 52.8167 19.6283C52.7833 19.7046 52.7657 19.7866 52.765 19.8696C52.7643 19.9526 52.7804 20.0349 52.8124 20.1117C52.8444 20.1885 52.8916 20.2583 52.9514 20.3169C53.0111 20.3756 53.0822 20.422 53.1604 20.4535C53.2386 20.4849 53.3224 20.5007 53.4069 20.5C53.4914 20.4993 53.5749 20.482 53.6525 20.4493C53.7302 20.4165 53.8004 20.3689 53.8591 20.3092L58.3137 15.9342C58.433 15.817 58.5 15.658 58.5 15.4923C58.5 15.3266 58.433 15.1676 58.3137 15.0504Z" fill="#FFFDF8"/>
</svg>
