<svg width="11" height="13" viewBox="0 0 11 13" fill="none" xmlns="http://www.w3.org/2000/svg">
<path d="M1.11694 12.8637C0.947408 12.8631 0.78017 12.8245 0.627496 12.7508C0.440348 12.6628 0.282021 12.5236 0.170934 12.3492C0.0598481 12.1748 0.000570981 11.9724 0 11.7656V1.09819C0.000817657 0.952625 0.030404 0.808658 0.0870576 0.674569C0.143711 0.54048 0.226314 0.418913 0.330116 0.316861C0.433918 0.214808 0.556871 0.134283 0.691904 0.0799168C0.826937 0.0255503 0.971385 -0.00158495 1.11694 7.15124e-05H9.90188C10.1926 0.00171875 10.471 0.117942 10.6765 0.323523C10.8821 0.529104 10.9984 0.807458 11 1.09819V11.7656C10.9959 11.9643 10.938 12.1582 10.8324 12.3266C10.7268 12.495 10.5774 12.6315 10.4003 12.7217C10.2232 12.8119 10.0249 12.8523 9.82662 12.8386C9.62833 12.825 9.43747 12.7577 9.27439 12.6441L5.63491 9.9145C5.6082 9.89312 5.575 9.88147 5.54079 9.88147C5.50657 9.88147 5.47337 9.89312 5.44666 9.9145L1.77581 12.6441C1.58531 12.7859 1.3544 12.8628 1.11694 12.8637ZM1.11694 0.941315C1.07534 0.941315 1.03544 0.957843 1.00602 0.987262C0.976596 1.01668 0.960068 1.05658 0.960068 1.09819V11.7656C0.959848 11.7946 0.968023 11.8231 0.983608 11.8476C0.999194 11.8721 1.02153 11.8916 1.04792 11.9037C1.07194 11.9201 1.10037 11.9289 1.12949 11.9289C1.15861 11.9289 1.18705 11.9201 1.21107 11.9037L4.88192 9.16151C5.0728 9.02085 5.30368 8.94497 5.54079 8.94497C5.77789 8.94497 6.00878 9.02085 6.19966 9.16151L9.83913 11.8911C9.86315 11.9076 9.89159 11.9164 9.92071 11.9164C9.94983 11.9164 9.97826 11.9076 10.0023 11.8911C10.0287 11.879 10.051 11.8596 10.0666 11.8351C10.0822 11.8106 10.0904 11.7821 10.0901 11.7531V1.09819C10.0906 1.07466 10.0858 1.05133 10.076 1.02992C10.0663 1.0085 10.0518 0.989564 10.0337 0.974499C10.0156 0.959434 9.9944 0.948628 9.97158 0.942884C9.94876 0.93714 9.92494 0.936604 9.90188 0.941315H1.11694Z" fill="#392D2D"/>
</svg>
