<svg width="18" height="20" viewBox="0 0 18 20" fill="none" xmlns="http://www.w3.org/2000/svg">
<path d="M6.79797 7.30335C6.67677 7.30371 6.55815 7.33944 6.45581 7.40641C6.35348 7.47339 6.27163 7.56887 6.21973 7.68182C6.16783 7.79477 6.14799 7.92056 6.16253 8.04465C6.17706 8.16874 6.22536 8.28605 6.30184 8.383L7.93229 10.4427C7.99043 10.5172 8.06495 10.5762 8.14966 10.615C8.23437 10.6538 8.32683 10.6712 8.41936 10.6657C8.61727 10.6547 8.79594 10.5455 8.90985 10.366L12.2967 4.74104C12.2973 4.7401 12.2979 4.73917 12.2984 4.73825C12.3302 4.68793 12.3199 4.58822 12.2543 4.52557C12.2363 4.50837 12.2151 4.49515 12.1919 4.48674C12.1687 4.47832 12.1442 4.47488 12.1197 4.47663C12.0952 4.47839 12.0713 4.48529 12.0495 4.49693C12.0277 4.50856 12.0084 4.52467 11.9928 4.54428C11.9916 4.54582 11.9904 4.54734 11.9891 4.54883L8.57339 8.52867C8.56039 8.54381 8.54461 8.55614 8.52695 8.56494C8.50929 8.57374 8.49012 8.57884 8.47053 8.57993C8.45095 8.58102 8.43135 8.57809 8.41288 8.57131C8.3944 8.56452 8.37742 8.55402 8.36291 8.54041L7.22931 7.47658C7.11157 7.36528 6.95769 7.30348 6.79797 7.30335Z" fill="#1A1A19"/>
<path d="M17.9363 16.6415L15.3843 11.682C16.2196 10.4849 16.7082 9.04175 16.7082 7.48962C16.7082 3.35983 13.2503 0 9.00002 0C4.74972 0 1.29184 3.35983 1.29184 7.48962C1.29184 9.04175 1.78039 10.4851 2.61585 11.6823L0.0636246 16.6415C-0.0298146 16.8233 -0.019764 17.0389 0.0900074 17.2116C0.199936 17.3843 0.394038 17.4896 0.603059 17.4896H3.53108L5.28789 19.7656C5.40253 19.9139 5.58156 20 5.77032 20C6.02049 20 6.21758 19.855 6.30976 19.6761L8.72944 14.9741C8.81927 14.9771 8.90941 14.9792 9.00002 14.9792C9.09063 14.9792 9.18077 14.9771 9.2706 14.9741L11.6903 19.6761C11.7822 19.8547 11.9794 20 12.2297 20C12.4183 20 12.5975 19.9139 12.712 19.7656L14.469 17.4896H17.397C17.606 17.4896 17.8001 17.3843 17.9099 17.2116C18.0198 17.0389 18.0299 16.8233 17.9363 16.6415ZM5.66746 18.304L4.31503 16.5521C4.20117 16.4046 4.02246 16.3177 3.8326 16.3177H1.57875L3.45005 12.6816C4.51258 13.7534 5.89957 14.5195 7.456 14.8282L5.66746 18.304ZM9.00002 13.8074C5.41478 13.8074 2.49791 10.9732 2.49791 7.48962C2.49791 4.00604 5.41478 1.17188 9.00002 1.17188C12.5853 1.17188 15.5021 4.00604 15.5021 7.48962C15.5021 10.9732 12.5853 13.8074 9.00002 13.8074ZM14.1673 16.3177C13.9776 16.3177 13.7989 16.4046 13.6849 16.5521L12.3326 18.304L10.5439 14.8282C12.1005 14.5193 13.4876 13.7534 14.5501 12.6813L16.4211 16.3176L14.1673 16.3177Z" fill="#1A1A19"/>
</svg>
