<svg width="13" height="13" viewBox="0 0 13 13" fill="none" xmlns="http://www.w3.org/2000/svg">
<path d="M12.8537 0.307227C12.7109 0.109104 12.482 0 12.2091 0C12.081 0 11.9436 0.0241465 11.8009 0.0717539L0.745081 3.757C0.363206 3.88428 0.100007 4.14441 0.0229465 4.47073C-0.054114 4.79708 0.0649426 5.14752 0.349597 5.43225C0.377425 5.4601 0.409417 5.48346 0.444406 5.50151L5.09904 7.90085L7.49848 12.5555C7.51651 12.5905 7.53987 12.6225 7.56769 12.6503C7.79644 12.8791 8.06025 13 8.33066 13H8.33073C8.74023 13 9.08981 12.7144 9.24294 12.2548L12.9283 1.19907C13.0441 0.851373 13.0176 0.53465 12.8537 0.307227ZM0.764277 4.6458C0.778851 4.58402 0.863808 4.52037 0.985937 4.47964L11.4795 0.981779L5.30915 7.15213L0.852077 4.85466C0.784945 4.77621 0.751759 4.69881 0.764277 4.6458ZM8.5203 12.014C8.48414 12.1224 8.41539 12.2383 8.33073 12.2383C8.27944 12.2383 8.21231 12.2051 8.14531 12.1478L5.84776 7.69074L12.0183 1.52024L8.5203 12.014Z" fill="#392D2D"/>
</svg>
