<svg width="25" height="20" viewBox="0 0 25 20" fill="none" xmlns="http://www.w3.org/2000/svg">
<path d="M21.3379 10.5725H18.8907C18.5577 10.5725 18.2352 10.6164 17.9283 10.6972C17.3229 9.549 16.087 8.7601 14.6628 8.7601H10.3372C8.91299 8.7601 7.67705 9.549 7.07168 10.6972C6.7648 10.6164 6.44233 10.5725 6.10928 10.5725H3.66211C1.64282 10.5725 0 12.1575 0 14.1057V17.8801C0 19.049 0.985693 20 2.19727 20H22.8027C24.0143 20 25 19.049 25 17.8801V14.1057C25 12.1575 23.3572 10.5725 21.3379 10.5725ZM6.67505 12.2934V18.5868H2.19727C1.79341 18.5868 1.46484 18.2698 1.46484 17.8801V14.1058C1.46484 12.9368 2.45054 11.9858 3.66211 11.9858H6.10928C6.30811 11.9858 6.50063 12.0119 6.68394 12.0599C6.67866 12.1372 6.67505 12.2149 6.67505 12.2934ZM16.8601 18.5868H8.13989V12.2934C8.13989 11.1244 9.12559 10.1734 10.3372 10.1734H14.6628C15.8744 10.1734 16.8601 11.1244 16.8601 12.2934V18.5868ZM23.5352 17.8801C23.5352 18.2698 23.2066 18.5868 22.8027 18.5868H18.325V12.2934C18.325 12.2148 18.3213 12.1371 18.3161 12.0598C18.4994 12.0119 18.6919 11.9858 18.8907 11.9858H21.3379C22.5495 11.9858 23.5352 12.9368 23.5352 14.1057V17.8801Z" fill="#1A1A19"/>
<path d="M4.88574 3.8995C3.09136 3.8995 1.63154 5.30794 1.63154 7.03918C1.63149 8.77041 3.09136 10.1789 4.88574 10.1789C6.68008 10.1789 8.13994 8.77041 8.13994 7.03918C8.13994 5.30794 6.68013 3.8995 4.88574 3.8995ZM4.88569 8.76556C3.89902 8.76556 3.09634 7.99112 3.09634 7.03918C3.09634 6.08723 3.89902 5.3128 4.88569 5.3128C5.87236 5.3128 6.67505 6.08723 6.67505 7.03918C6.67505 7.99112 5.87236 8.76556 4.88569 8.76556Z" fill="#1A1A19"/>
<path d="M12.5 0C10.1027 0 8.15244 1.88166 8.15244 4.19455C8.15244 6.50745 10.1027 8.38911 12.5 8.38911C14.8973 8.38911 16.8476 6.50745 16.8476 4.19455C16.8476 1.8817 14.8973 0 12.5 0ZM12.5 6.97582C10.9104 6.97582 9.61729 5.72816 9.61729 4.19455C9.61729 2.66099 10.9104 1.41329 12.5 1.41329C14.0896 1.41329 15.3827 2.66094 15.3827 4.19455C15.3827 5.72816 14.0896 6.97582 12.5 6.97582Z" fill="#1A1A19"/>
<path d="M20.1143 3.8995C18.3199 3.8995 16.8601 5.30794 16.8601 7.03918C16.8601 8.77041 18.3199 10.1789 20.1143 10.1789C21.9086 10.1789 23.3685 8.77041 23.3685 7.03918C23.3685 5.30794 21.9086 3.8995 20.1143 3.8995ZM20.1143 8.76556C19.1276 8.76556 18.3249 7.99112 18.3249 7.03918C18.325 6.08723 19.1276 5.3128 20.1143 5.3128C21.1009 5.3128 21.9036 6.08723 21.9036 7.03918C21.9036 7.99112 21.1009 8.76556 20.1143 8.76556Z" fill="#1A1A19"/>
</svg>
